HIERARCHY
ROOT __0
{
	OFFSET 0.0 0.0 0.0
	CHANNELS 0
	JOINT Coluna inicio
	{
		OFFSET 0.000000 0.000000 0.000000
		CHANNELS 6 Xposition Yposition Zposition Xrotation Yrotation Zrotation
		JOINT Coluna fim
		{
			OFFSET -0.004211 0.008762 1.002173
			CHANNELS 3 Xrotation Yrotation Zrotation
			JOINT Base Rabo
			{
				OFFSET 0.019940 -0.259367 0.778673
				CHANNELS 3 Xrotation Yrotation Zrotation
				JOINT Osso(s).003
				{
					OFFSET -0.004296 -0.007910 0.653717
					CHANNELS 3 Xrotation Yrotation Zrotation
					End Site
					{
						OFFSET 0.077326 0.000000 0.000000
					}
				}
				JOINT inicio rabo
				{
					OFFSET -0.004296 -0.007910 0.653717
					CHANNELS 3 Xrotation Yrotation Zrotation
					JOINT Meio Rabo
					{
						OFFSET -0.004296 -0.709959 0.247224
						CHANNELS 3 Xrotation Yrotation Zrotation
						JOINT Ponta Raboi
						{
							OFFSET 0.004296 -0.654937 0.172854
							CHANNELS 3 Xrotation Yrotation Zrotation
							End Site
							{
								OFFSET 0.077326 -0.641542 0.003407
							}
						}
					}
				}
			}
			JOINT BaseLagL
			{
				OFFSET 0.019940 -0.259367 0.778673
				CHANNELS 3 Xrotation Yrotation Zrotation
				JOINT Osso(s).008
				{
					OFFSET 0.570019 0.330718 -0.001756
					CHANNELS 3 Xrotation Yrotation Zrotation
					JOINT Osso(s).009
					{
						OFFSET 0.000000 1.113513 -0.145525
						CHANNELS 3 Xrotation Yrotation Zrotation
						JOINT Osso(s).010
						{
							OFFSET -0.153831 0.582186 0.270023
							CHANNELS 3 Xrotation Yrotation Zrotation
							JOINT Osso(s).011
							{
								OFFSET 0.031087 0.451030 -0.478059
								CHANNELS 3 Xrotation Yrotation Zrotation
								End Site
								{
									OFFSET 0.003787 0.134467 -0.302021
								}
							}
						}
					}
				}
			}
			JOINT BaseLagR
			{
				OFFSET -0.019827 -0.259366 0.778673
				CHANNELS 6 Xposition Yposition Zposition Xrotation Yrotation Zrotation
				JOINT Osso(s).017
				{
					OFFSET -0.570019 0.330718 -0.001756
					CHANNELS 3 Xrotation Yrotation Zrotation
					JOINT Osso(s).018
					{
						OFFSET 0.000000 1.113513 -0.145525
						CHANNELS 3 Xrotation Yrotation Zrotation
						JOINT Osso(s).019
						{
							OFFSET 0.153831 0.582186 0.270023
							CHANNELS 3 Xrotation Yrotation Zrotation
							JOINT Osso(s).020
							{
								OFFSET -0.031087 0.451030 -0.478059
								CHANNELS 3 Xrotation Yrotation Zrotation
								End Site
								{
									OFFSET 0.098858 0.142562 -0.281176
								}
							}
						}
					}
				}
			}
		}
	}
	JOINT BaseArmL
	{
		OFFSET 0.000000 0.000000 0.000000
		CHANNELS 6 Xposition Yposition Zposition Xrotation Yrotation Zrotation
		JOINT Osso(s).013
		{
			OFFSET 0.722479 0.789726 -0.335264
			CHANNELS 3 Xrotation Yrotation Zrotation
			JOINT Osso(s).014
			{
				OFFSET 0.000000 0.833901 -0.004428
				CHANNELS 3 Xrotation Yrotation Zrotation
				JOINT Osso(s).015
				{
					OFFSET -0.130935 0.565669 -0.236843
					CHANNELS 3 Xrotation Yrotation Zrotation
					End Site
					{
						OFFSET -0.004223 0.149633 -0.290700
					}
				}
			}
		}
	}
	JOINT BaseArmR
	{
		OFFSET -0.008309 0.000001 -0.000000
		CHANNELS 6 Xposition Yposition Zposition Xrotation Yrotation Zrotation
		JOINT Osso(s).021
		{
			OFFSET -0.722479 0.789726 -0.335264
			CHANNELS 3 Xrotation Yrotation Zrotation
			JOINT Osso(s).022
			{
				OFFSET 0.000000 0.833901 -0.004428
				CHANNELS 3 Xrotation Yrotation Zrotation
				JOINT Osso(s).023
				{
					OFFSET 0.130935 0.565668 -0.236843
					CHANNELS 3 Xrotation Yrotation Zrotation
					End Site
					{
						OFFSET 0.004223 0.149633 -0.290701
					}
				}
			}
		}
	}
	JOINT Pescoço inicio
	{
		OFFSET 0.000000 0.000000 0.000000
		CHANNELS 6 Xposition Yposition Zposition Xrotation Yrotation Zrotation
		JOINT Pescoço
		{
			OFFSET 0.000000 -0.181435 -0.352807
			CHANNELS 3 Xrotation Yrotation Zrotation
			JOINT Cabeça
			{
				OFFSET 0.000000 -0.274504 -0.237973
				CHANNELS 3 Xrotation Yrotation Zrotation
				JOINT Osso(s).027
				{
					OFFSET 0.000000 -1.004322 0.005333
					CHANNELS 3 Xrotation Yrotation Zrotation
					JOINT Orelha BaseL
					{
						OFFSET 0.486284 0.000000 0.000000
						CHANNELS 3 Xrotation Yrotation Zrotation
						JOINT OrelhaPontaL
						{
							OFFSET 0.000000 -0.443769 -0.424867
							CHANNELS 3 Xrotation Yrotation Zrotation
							End Site
							{
								OFFSET 0.114109 -0.201182 -0.214348
							}
						}
					}
				}
				JOINT Testa
				{
					OFFSET 0.000000 -1.004322 0.005333
					CHANNELS 3 Xrotation Yrotation Zrotation
					JOINT EntreOlhos
					{
						OFFSET 0.000000 -0.003771 -0.710243
						CHANNELS 3 Xrotation Yrotation Zrotation
						JOINT SombranselhaL
						{
							OFFSET 0.000000 0.377966 -0.406650
							CHANNELS 3 Xrotation Yrotation Zrotation
							End Site
							{
								OFFSET 0.348212 -0.165097 0.027791
							}
						}
						JOINT SombranselhaR
						{
							OFFSET -0.015806 0.377966 -0.406650
							CHANNELS 6 Xposition Yposition Zposition Xrotation Yrotation Zrotation
							End Site
							{
								OFFSET -0.348212 -0.165097 0.027791
							}
						}
					}
				}
				JOINT Osso(s).034
				{
					OFFSET 0.014762 -1.004322 0.005333
					CHANNELS 6 Xposition Yposition Zposition Xrotation Yrotation Zrotation
					JOINT Orelha baseR
					{
						OFFSET -0.486284 0.000000 0.000000
						CHANNELS 3 Xrotation Yrotation Zrotation
						JOINT Orelha PontaR
						{
							OFFSET 0.000000 -0.443769 -0.424867
							CHANNELS 3 Xrotation Yrotation Zrotation
							End Site
							{
								OFFSET -0.114109 -0.201182 -0.214348
							}
						}
					}
				}
			}
		}
	}
}
MOTION
Frames: 4
Frame Time: 0.041667
0.000000 0.000000 0.000000 0.000011 0.000026 0.000034 -0.000004 0.000006 0.000033 0.000001 -0.000000 0.000000 0.000000 -0.000000 0.000001 1.461969 -9.245160 -19.456282 -4.156766 0.422472 -12.052203 3.355136 -1.779993 3.905367 0.000005 -0.000005 0.000025 27.269105 -0.000016 -0.000029 -0.000026 -0.000003 -0.000018 33.792938 -0.000016 0.000017 -0.000021 -0.000002 0.000021 -0.019827 -0.259367 0.778673 0.000003 0.000015 0.000012 7.901380 -3.183187 -1.021063 -0.000003 -0.000004 -0.000031 19.892204 -0.038596 1.278358 -0.000031 -0.000003 0.000027 0.000000 0.000000 0.000000 -0.000005 0.000000 -0.000014 -15.628246 -0.000002 0.000003 10.899202 -0.000004 0.000006 0.000011 0.000004 -0.000004 -0.008309 0.000001 -0.000000 -0.000001 0.000014 0.000017 -29.142177 -0.000022 0.000006 8.711751 0.282275 4.077746 0.000007 0.000004 -0.000011 0.000000 0.000000 0.000000 0.000000 -0.000000 -0.000000 -0.000002 -0.000000 0.000000 -0.000002 -0.000000 0.000000 0.000000 0.000000 -0.000000 -0.695448 -16.456948 14.139862 0.000001 -0.000001 -0.000006 0.000000 -0.000000 -0.000000 -0.000000 -0.000000 -0.000000 0.000000 -0.000000 -0.000001 -0.015806 0.377966 -0.406650 0.000003 0.000000 0.000002 0.014762 -1.004322 0.005333 0.000000 -0.000000 -0.000000 0.845639 -13.559672 -5.388177 -31.413642 -7.405904 6.159703 
0.000000 0.000000 0.000000 0.000021 0.000028 0.000039 0.000002 0.000005 0.000038 0.000004 0.000000 0.000000 0.000000 0.000000 0.000001 1.461973 -9.245466 -19.456012 -4.156363 0.428087 -12.053557 3.349294 -1.777010 3.904955 0.000016 -0.000006 0.000025 27.269110 -0.000014 -0.000032 -0.000022 -0.000002 -0.000018 33.792948 -0.000016 0.000018 -0.000029 -0.000012 0.000031 -0.019827 -0.259367 0.778673 0.000004 0.000014 0.000012 7.695417 -3.219780 -1.039202 -0.000007 0.000003 -0.000034 19.763822 -0.040510 1.293742 -0.000023 -0.000018 0.000031 0.000000 0.000000 0.000000 -0.000014 -0.000006 -0.000035 -15.374539 0.000009 0.000015 10.899197 0.000001 0.000013 0.000018 -0.000007 -0.000010 -0.008309 0.000001 -0.000000 -0.000001 0.000014 0.000017 -29.142184 -0.000020 0.000011 8.711755 0.282274 4.077749 0.000007 0.000007 -0.000017 0.000000 0.000000 0.000000 0.000000 -0.000000 -0.000000 -0.000002 -0.000000 0.000000 -0.000002 -0.000000 0.000000 0.000000 0.000000 -0.000000 -0.718126 -16.459933 14.135141 0.000007 0.000000 -0.000003 0.000000 -0.000000 -0.000000 -0.000000 -0.000000 -0.000000 0.000000 -0.000000 -0.000001 -0.015806 0.377966 -0.406650 0.000003 0.000000 0.000002 0.014762 -1.004322 0.005333 0.000000 -0.000000 -0.000000 0.842632 -13.566759 -5.396295 -31.413645 -7.405900 6.159705 
0.000000 0.000000 0.000000 0.000033 0.000021 0.000029 0.000003 0.000006 0.000029 0.000002 -0.000000 0.000000 -0.000000 -0.000000 0.000000 1.461981 -9.245782 -19.455729 -4.155963 0.433691 -12.054909 3.343159 -1.773874 3.904528 0.000005 -0.000001 0.000019 27.269103 -0.000015 -0.000024 -0.000019 -0.000003 -0.000012 33.792935 -0.000016 0.000019 -0.000023 0.000001 0.000021 -0.019827 -0.259367 0.778673 0.000006 0.000014 0.000014 7.489370 -3.256316 -1.057456 0.000005 -0.000008 -0.000025 19.635423 -0.042457 1.309132 -0.000022 -0.000001 0.000019 0.000000 0.000000 0.000000 -0.000012 -0.000011 -0.000047 -15.120751 0.000002 0.000006 10.899198 0.000005 0.000008 0.000014 0.000001 -0.000001 -0.008309 0.000001 -0.000000 -0.000001 0.000014 0.000017 -29.142184 -0.000020 0.000011 8.711755 0.282274 4.077749 0.000007 0.000007 -0.000017 0.000000 0.000000 0.000000 0.000000 -0.000000 -0.000000 -0.000002 -0.000000 0.000000 -0.000002 -0.000000 0.000000 0.000000 0.000000 -0.000000 -0.740763 -16.462916 14.130380 0.000001 -0.000003 -0.000004 0.000000 -0.000000 -0.000000 -0.000000 -0.000000 -0.000000 0.000000 -0.000000 -0.000001 -0.015806 0.377966 -0.406650 0.000003 0.000000 0.000002 0.014762 -1.004322 0.005333 0.000000 -0.000000 -0.000000 0.839591 -13.573822 -5.404410 -31.413649 -7.405899 6.159703 
0.000000 0.000000 0.000000 0.000039 0.000026 0.000034 0.000010 0.000006 0.000034 0.000002 0.000000 0.000000 -0.000000 0.000000 0.000000 1.461986 -9.246108 -19.455439 -4.155565 0.439281 -12.056259 3.336734 -1.770591 3.904088 0.000009 -0.000004 0.000020 27.269108 -0.000021 -0.000029 -0.000026 0.000000 -0.000014 33.792938 -0.000018 0.000014 -0.000013 -0.000016 0.000028 -0.019827 -0.259367 0.778673 0.000003 0.000014 0.000014 7.283263 -3.292790 -1.075865 -0.000001 -0.000004 -0.000030 19.506995 -0.044451 1.324509 -0.000022 -0.000007 0.000027 0.000000 0.000000 0.000000 -0.000008 -0.000017 -0.000067 -14.866907 0.000010 0.000009 10.899206 -0.000000 0.000017 -0.000009 -0.000008 -0.000008 -0.008309 0.000001 -0.000000 -0.000001 0.000014 0.000017 -29.142184 -0.000020 0.000011 8.711755 0.282274 4.077749 0.000007 0.000007 -0.000017 0.000000 0.000000 0.000000 0.000000 -0.000000 -0.000000 -0.000002 -0.000000 0.000000 -0.000002 -0.000000 0.000000 0.000000 0.000000 -0.000000 -0.763356 -16.465901 14.125576 0.000001 0.000003 -0.000002 0.000000 -0.000000 -0.000000 -0.000000 -0.000000 -0.000000 0.000000 -0.000000 -0.000001 -0.015806 0.377966 -0.406650 0.000003 0.000000 0.000002 0.014762 -1.004322 0.005333 0.000000 -0.000000 -0.000000 0.836526 -13.580857 -5.412522 -31.413645 -7.405901 6.159705 
